<svg width="79" height="24" viewBox="0 0 79 24" fill="none" xmlns="http://www.w3.org/2000/svg">
<path d="M12 22C17.5228 22 22 17.5228 22 12C22 6.47715 17.5228 2 12 2C6.47715 2 2 6.47715 2 12C2 17.5228 6.47715 22 12 22Z" stroke="white" stroke-width="2" stroke-linecap="round" stroke-linejoin="round"/>
<path d="M12 16V12" stroke="white" stroke-width="2" stroke-linecap="round" stroke-linejoin="round"/>
<path d="M12 8H12.01" stroke="white" stroke-width="2" stroke-linecap="round" stroke-linejoin="round"/>
<path d="M67 10C65.9 10 65 10.9 65 12C65 13.1 65.9 14 67 14C68.1 14 69 13.1 69 12C69 10.9 68.1 10 67 10ZM67 4C65.9 4 65 4.9 65 6C65 7.1 65.9 8 67 8C68.1 8 69 7.1 69 6C69 4.9 68.1 4 67 4ZM67 16C65.9 16 65 16.9 65 18C65 19.1 65.9 20 67 20C68.1 20 69 19.1 69 18C69 16.9 68.1 16 67 16Z" fill="white"/>
</svg>
